<?xml version="1.0" encoding="utf-8"?>
<!-- Generator: Adobe Illustrator 25.0.0, SVG Export Plug-In . SVG Version: 6.00 Build 0)  -->
<svg version="1.1" id="圖層_1" xmlns="http://www.w3.org/2000/svg" xmlns:xlink="http://www.w3.org/1999/xlink" x="0px" y="0px"
	 viewBox="0 0 325.9 48.2" style="enable-background:new 0 0 325.9 48.2;" xml:space="preserve">
<style type="text/css">
	.st1{clip-path:url(#SVGID_2_);fill:#736B00;}
	.st2{clip-path:url(#SVGID_4_);fill:url(#SVGID_5_);}
	.st3{clip-path:url(#SVGID_7_);fill:url(#SVGID_8_);}
	.st4{fill:#FFFFFF;}
	.st5{fill:#009FA8;}
	.st6{fill:#920783;}
	.st7{fill:#736B00;}
</style>
<g>
	<defs>
		<rect id="SVGID_1_" x="-87.8" y="-91.2" width="595.3" height="841.9"/>
	</defs>
	<clipPath id="SVGID_2_">
		<use xlink:href="#SVGID_1_"  style="display:none;overflow:visible;"/>
	</clipPath>
	<path class="st0" d="M107.4,22.2c-1.6-1.8-2.3-3.3-3.5-6v-0.6h1.2l1.5-3h-2.8l0-6.7l-3.1,0v6.7h-4.6l0.1,3h4.5
		c-2.2,10.2-6.4,16-9,15.4l-0.8,0.3c0.4,0.2,0.8,0.5,1.4,0.6c4.1,0.7,7.8-7,8.3-8.5c0,0,0-0.1,0-0.1v14.6v4.9l3.1,0v-4.9l0-16.4
		c0.6,1.4,1.3,2.7,2,3.8L107.4,22.2z"/>
	<path class="st0" d="M108.2,25.9v2.7v14l3.2-0.1V28.7h14V33v1.5v3.4c0,0.8-0.3,1.2-0.8,1.4c0,0-2.6,0.5-3.6,0.6l1.7,3.2l2.5-0.5
		c0.4-0.1,0.8-0.2,1.3-0.4c1.3-0.5,2-1.6,2-3.2v-4.4V33v-7.1H108.2z"/>
	<path class="st0" d="M134,20.1c-0.1,0.2-0.3,0.4-0.6,0.5c-2.4,1.3-5.6-1.1-7.3-2.6c-0.7-0.6-1.4-1.4-2-2.2
		c-0.1-0.1-0.6-0.9-0.6-0.9h4.8l1.5-2.7h-12.1c0.3-0.8,0.6-1.7,0.8-2.7c2.1-0.3,4.1-0.6,6.1-1c0.5-0.1,3-0.3,3-0.3l-2.7-2.5
		c-3.2,0.7-5.9,1.1-8.1,1.3c-2.5,0.3-5.4,0.5-8.9,0.6l1.9,2.7c1.9-0.1,5.5-0.5,5.5-0.5l-0.6,2.3h-7.2l0,2.7h6.1
		c-0.2,0.3-2.2,3-7.3,4.9l2.3,2.1c1.5-0.8,2.7-1.6,3.8-2.3v4.8h11.8V19c0,0.8,2.6,2.3,3.2,2.6c0.5,0.2,0.9,0.4,1.4,0.5
		c0,0,0.7,0.2,1.6,0.3c0.6,0,1.1,0,1.5-0.2c1.6-0.4,2.5-1.6,2.9-2.2L134,20.1z M118.2,22.4l-3.9-1.6l3.9-1.5l3.9,1.5L118.2,22.4z
		 M114.7,17.4c0.6-0.7,1.5-1.6,2-2.5h3.6c0.7,0.9,1.4,1.8,2.2,2.5H114.7z"/>
	<path class="st0" d="M123,37.4h-9.6v-6.9h9.6V37.4z M121.3,33.9l-3.1-1.7l-3,1.7l3,1.8L121.3,33.9z"/>
	<path class="st0" d="M64.1,28.1c2.2,1,3.6,2.7,5.4,3.9l2-2.1c-1.6-1.1-3.6-2.2-5.9-3.2L64.1,28.1"/>
	<path class="st0" d="M92.3,37.4c-0.3,0.3-0.6,0.7-1,0.9c-1.7,1.1-3.4,0.2-6-2.2c-1.2-1.1-2.9-3.5-2.9-3.5l6-3l-3.5-2.1
		c-1.4,1.3-2.1,1.8-3.9,3c-1.3-1.5-2.8-3.6-3.2-4.4h6.5l2.3-2v-3h3.1l1.4-3h-4.5v-2.9l-1.8-1.8h-6.8v-2.2h11l1.5-3.1H77.8l0-3.3
		l-3.4,0v3.3H59.8c0.3,6.6,0.4,13.2,0,19.8c-0.2,3.5-0.4,7.6-2.2,10.7c-0.8,1.4-2.3,2.4-4,1.6l-0.4-0.2c0,0,0,0-0.1,0l-0.7,0.2
		c0.3,0.2,1,0.6,1.8,0.8c0.4,0.1,0.9,0.2,1.4,0.2C62.4,41,63,26,63,21.7v-0.5h11.4v2.2h-8.7l0,2.8h8.7v3.8c-4,2.6-7.5,4.9-11.6,5.8
		l0.8,3.3c0,0.3,7.6-3.2,10.9-5.9V36c0,0.3,0,1-0.1,1c-0.1,1.1-0.6,1.7-1.5,1.7h-2.7l1.3,3.7c2.7,0,4.4-0.4,5.1-1.2
		c0.7-0.8,1.1-1.9,1.2-3.4l0-0.8c0-1.6,0.1-5.3,0-5.4c1.6,1.8,3.1,3.8,4.9,5.6c1.7,1.7,3.8,3.4,6.3,3.3c2.1,0,3.6-1.6,4.3-3.5
		L92.3,37.4z M77.8,16.3h4.7l0.7,0.8v1.1h-5.4V16.3z M77.8,21.2h5.4v1.1l-1,1.1h-4.4V21.2z M74.4,13.5h-8.6l0,2.8h8.7v1.9H63v-7
		h11.4V13.5z"/>
	<path class="st0" d="M167.2,19.9v22.4h-2.8v-0.8h-22.8v0.8h-2.8V19.9H167.2z M164.4,21.9h-22.8v17.6h22.8V21.9z M153.6,24.9
		c0-0.8,0-1.7,0-2.5l2.5,0.4c0.3,0.1,0.5,0.2,0.5,0.3c0,0.2-0.1,0.4-0.4,0.6c0,0.4,0,0.8,0,1.2h4c-0.8-0.7-1.6-1.2-2.3-1.6l1.7-1.2
		c0.9,0.5,1.8,1.1,2.7,1.8l-1.6,1h2.5v1.8h-6.9c0.1,2,0.5,3.7,1,5.1c0.1,0.3,0.2,0.6,0.4,0.9c0,0,0-0.1,0-0.1c1-1.3,1.8-2.8,2.2-4.5
		l2.4,0.5c0.3,0.1,0.4,0.2,0.4,0.3c0,0.2-0.2,0.3-0.5,0.5c-0.9,2.3-1.9,4-3.2,5.2c-0.1,0.1-0.1,0.1-0.2,0.2c0.2,0.2,0.3,0.4,0.5,0.6
		c0.4,0.4,0.8,0.6,1.1,0.6c0.3,0,0.7-0.7,1.3-2.2l2.1,1.4c-1.3,2.4-2.4,3.5-3.3,3.5c-0.7,0-1.7-0.5-2.8-1.4
		c-0.3-0.3-0.6-0.6-0.8-0.9c-1.2,0.8-2.5,1.6-4.1,2.4l-2.1-1.3c1.5-0.6,2.7-1.3,3.7-1.9c0.4-0.3,0.9-0.6,1.3-0.9
		c-0.5-0.8-0.9-1.7-1.2-2.7c-0.4-1.3-0.7-3.1-0.8-5.3h-10.9v-1.8H153.6z M152.8,36.2c-1.8,0.3-4.5,0.7-8.3,1.2
		c-0.2,0.3-0.4,0.4-0.6,0.4c-0.2,0-0.3-0.1-0.3-0.3l-0.6-2.1c3.3-0.2,6.6-0.5,9.8-1V36.2z M152.3,33.6h-8.6v-5.6h8.6V33.6z
		 M149.8,29.8h-3.6v2.1h3.6V29.8z"/>
	<path class="st0" d="M183,19.9c0.1-0.2,0.3-0.3,0.4-0.3l2.4,1.4l-2.2,3.9c2.4-1.4,4.5-3.4,6.2-6l2,0.5c0.3,0.1,0.4,0.2,0.4,0.3
		c0,0.1-0.1,0.2-0.4,0.2c-0.2,0.3-0.5,0.6-0.7,0.9h2.7c0.4-0.2,0.7-0.3,0.8-0.3c0.1,0,0.4,0.3,1.2,0.7c-0.1-0.1-0.1-0.2-0.1-0.3
		l2.2-0.2c0.6,2.1,1.5,3.8,2.8,5.1c0,0.1,0.1,0.1,0.2,0.2l1.9-3.5h-3.5v-1.8h3.9l0.6-0.2c0.2,0,0.5,0.1,0.7,0.2l1.5,0.7
		c0.2,0.1,0.3,0.2,0.3,0.3c0,0.2-0.2,0.4-0.6,0.6l-3,5.3c0.9,0.7,2,1.3,3.3,2l-2.5,1.4c-0.6-0.4-1.2-0.8-1.7-1.2V31h-12.2v-1.4
		c-1,0.6-2.2,1.1-3.4,1.5l-1.7-1.5c1.5-0.4,2.9-0.9,3.9-1.5c0.1,0,0.1-0.1,0.1-0.1c-0.9-0.7-1.8-1.3-2.8-2c-0.4,0.3-0.8,0.5-1.1,0.8
		l-1.3-1.1l-1.1,1.9c1.8,1.9,2.8,3.7,2.8,5.3c0,1.7-0.5,2.9-1.4,3.9c-1,1-2.1,1.4-3.6,1.4l-1.1-2.1c1.4-0.2,2.3-0.6,2.7-1.2
		c0.4-0.5,0.6-1.2,0.6-2.2c0-1.2-1-2.8-2.8-4.9l3-6.1h-3.9v21h-2.8V19.9h1.3H183z M190.9,37.1c0.2,0.1,0.3,0.2,0.3,0.3
		c0,0.2-0.2,0.3-0.5,0.3c-1.2,1.2-2.9,2.5-5,3.9l-2.5-1.5c2-1,4-2.3,5.8-4L190.9,37.1z M205,33v2h-8.1v4.9c0,0.9-0.3,1.5-0.9,1.9
		c-0.5,0.4-1.8,0.6-3.7,0.6l-1.2-2.2h1.9c0.6,0,1-0.2,1.1-0.7V35h-8v-2H205z M190,27c0.3-0.3,0.6-0.5,0.9-0.8c0,0,0,0,0.1-0.1
		c-1-0.7-2-1.3-3.1-1.9c-0.3,0.3-0.6,0.6-0.9,0.8C188.2,25.6,189.1,26.3,190,27 M192.2,24.6c0.4-0.6,0.8-1.3,1.2-2h-3.9
		c-0.1,0.1-0.2,0.2-0.2,0.3C190.3,23.5,191.3,24,192.2,24.6 M201,29.2c-0.5-0.4-1-0.8-1.4-1.2c-1.1-1-1.9-2.1-2.4-3.1
		c-0.4-0.6-0.8-1.4-1.1-2.4c-0.2,0.3-0.5,0.8-0.9,1.4c-1.1,2-2.3,3.4-3.5,4.3c-0.5,0.4-1,0.7-1.5,1H201z M205.9,40.1l-2.4,1.6
		c-2.2-1.6-3.9-3.1-5-4.5l2.1-0.9C202.1,37.8,203.8,39,205.9,40.1"/>
	<path class="st0" d="M221.4,21c-1.1,0.3-2.4,0.5-3.7,0.7v1.1h4.5v1.7h-4.5v1.3h4.5v1.7h-4.5v1.3h19.8v-1.3h-4.4v-1.7h4.4v-1.3h-4.4
		v-1.7h4.4v-1.3h-4.5v-1.9h7.4v9.3h2.2V34h-2.9v-3.1h-24.2V34h-2.9v-5.1h2.1v-9.4l1.4,0.5c0.8-0.1,1.5-0.2,2.3-0.4
		c0.9-0.2,1.7-0.4,2.5-0.8l1.8,1.4c0.2,0.2,0.3,0.3,0.3,0.5S223,21,222.8,21l-0.7-0.2C221.9,20.9,221.7,20.9,221.4,21 M234,31.9
		l1.5,0.7c0.2,0.1,0.3,0.2,0.3,0.3c0,0.2-0.2,0.4-0.7,0.6l-5.1,2.8h12.1v2h-13v1.3c0,1-0.4,1.7-1.3,2.2c-0.7,0.5-2.4,0.8-5.2,0.8
		l-1.2-2.2h3.1c1.1,0,1.6-0.4,1.7-1.1v-0.9h-13.4v-2h13.4v-1.2l1.9,0.2l2.2-1.6h-10.9v-1.8h13.2l0.6-0.2
		C233.6,31.7,233.8,31.8,234,31.9 M231.7,19.9c0.2,0.1,0.3,0.2,0.3,0.2c0,0.2-0.2,0.3-0.5,0.4c-0.6,0.4-1.3,0.8-1.8,1.1
		c0.7,0.4,1.5,0.8,2.2,1.2l-1.6,1.1c-0.9-0.5-1.7-1-2.5-1.4c-0.9,0.4-1.9,0.9-3.1,1.3l-1.5-1.1c1-0.4,1.9-0.8,2.7-1.1
		c-0.9-0.4-1.7-0.8-2.5-1.1l1.4-1c1,0.4,1.9,0.8,2.9,1.2c0.7-0.4,1.5-0.9,2.2-1.5L231.7,19.9z M231.8,24.8c0.2,0.1,0.3,0.1,0.3,0.2
		c0,0.2-0.2,0.3-0.5,0.4c-0.6,0.4-1.3,0.8-1.8,1.1c0.6,0.4,1.3,0.8,1.9,1.1l-1.6,1.1c-0.7-0.5-1.4-0.9-2.1-1.3
		c-0.9,0.4-2,0.9-3.2,1.3l-1.4-1.1c1.1-0.4,2.1-0.8,2.9-1.2c-1-0.5-1.9-0.9-2.8-1.3l1.5-1c1,0.4,2,0.9,3,1.4c0.7-0.4,1.4-0.9,2-1.4
		L231.8,24.8z"/>
	<path class="st0" d="M254.2,24.6V19l2.7,0.2c0.5,0.1,0.8,0.2,0.8,0.3c0,0.1-0.2,0.3-0.5,0.5v4.6h3.6v2.1h-3.4c1.4,2.8,3,5.2,4.9,7
		l-2,1.6c-1.2-1.5-2.2-3.2-3.2-4.9v11.2h-2.9V30.8c-0.2,0.5-0.3,1.1-0.4,1.5c-0.5,1.9-1.1,3.5-1.8,5.1l-2.9-1.5
		c1-1.4,1.8-2.8,2.5-4.4c0.5-1,1.1-2.6,1.8-4.7H250v-2.1H254.2z M277.5,31.5c0.2,0.1,0.3,0.2,0.3,0.3s-0.2,0.3-0.7,0.4
		c-1.2,2.2-2.5,3.9-3.9,5.2c2,1.2,4.7,2.3,8,3.3l-2,2c-3.3-1.2-5.9-2.5-7.9-3.8c-2,1.3-4.8,2.6-8.3,3.7l-2.7-1.9
		c4-0.9,6.9-2,8.7-3.3c-1.8-1.5-3.2-3.5-4.3-5.8l2.7-0.5c0.9,1.9,2.1,3.5,3.6,4.8c1.3-1.3,2.5-3,3.6-5.1L277.5,31.5z M268.6,25.9
		c0.3,0.1,0.5,0.2,0.5,0.3c0,0.1-0.1,0.2-0.3,0.3c-0.2,0.1-0.7,0.5-1.3,1.4c-1.1,1.4-2.4,2.8-3.9,4l-2.9-1.2
		c2.1-1.6,3.8-3.4,5.2-5.6L268.6,25.9z M272.4,19.1c0.5,0.1,0.8,0.2,0.8,0.3c0,0.1-0.2,0.3-0.5,0.6v2.5h7.4v2h-17.8v-2h7.3v-3.6
		L272.4,19.1z M280.9,30.4l-2.7,1.3c-1.6-2-3.4-3.6-5.3-5.1l2.1-1.3C277,26.7,279,28.4,280.9,30.4"/>
	<path class="st0" d="M140.5,11.3l-0.7,0.8v1.8c0,0.1,0,0.2,0,0.2c0,0.1,0.1,0.1,0.2,0.1v0.2h-1.4v-0.2c0.1,0,0.1-0.1,0.2-0.1
		c0-0.1,0-0.1,0-0.2V8.2c0-0.1,0-0.2,0-0.2c0-0.1-0.1-0.1-0.2-0.1V7.7h1.4v0.2c-0.1,0-0.1,0.1-0.2,0.1c0,0.1,0,0.1,0,0.2v2.3
		l1.8-2.2c0.1-0.1,0.1-0.2,0.1-0.2c0-0.1-0.1-0.2-0.2-0.2V7.7h1.8v0.2c-0.1,0-0.1,0-0.2,0.1c0,0-0.1,0.1-0.3,0.3l-0.2,0.3l-1.5,1.8
		l1.7,3.1c0.2,0.3,0.3,0.5,0.3,0.6c0.1,0.1,0.2,0.1,0.3,0.2v0.2h-1.7v-0.2c0.1,0,0.2-0.1,0.2-0.2c0,0-0.1-0.2-0.2-0.4L140.5,11.3z"
		/>
	<path class="st0" d="M147.1,12.7h-2l-0.3,0.9c0,0.1-0.1,0.2-0.1,0.3c0,0.1,0.1,0.2,0.2,0.3v0.2h-1.4v-0.2c0.1,0,0.1-0.1,0.2-0.1
		c0-0.1,0.1-0.2,0.2-0.4l1.6-5.1c0.1-0.2,0.1-0.3,0.1-0.4c0-0.2-0.1-0.3-0.2-0.3V7.7h1.5v0.2c-0.1,0.1-0.2,0.2-0.2,0.3
		c0,0.1,0,0.2,0.1,0.3l1.6,5.1c0.1,0.2,0.1,0.4,0.2,0.4c0.1,0.1,0.1,0.1,0.2,0.2v0.2h-1.6v-0.2c0.1,0,0.2-0.1,0.2-0.3
		c0-0.1,0-0.2-0.1-0.3L147.1,12.7z M146.9,11.8l-0.7-2.4l-0.7,2.4H146.9z"/>
	<path class="st0" d="M150.3,9.8v4.1c0,0.1,0,0.2,0,0.2c0,0.1,0.1,0.1,0.2,0.1v0.2h-1.3v-0.2c0.1,0,0.1-0.1,0.2-0.1
		c0-0.1,0-0.1,0-0.2V8.2c0-0.1,0-0.2,0-0.2c0-0.1-0.1-0.1-0.2-0.1V7.7h1.5v0.2c-0.1,0-0.1,0.1-0.1,0.2c0,0.1,0,0.2,0.1,0.3l2.4,3.8
		v-4c0-0.1,0-0.2,0-0.2c0-0.1-0.1-0.1-0.2-0.1V7.7h1.3v0.2c-0.1,0-0.1,0.1-0.2,0.1c0,0.1,0,0.1,0,0.2v5.6c0,0.1,0,0.2,0,0.2
		c0,0.1,0.1,0.1,0.2,0.1v0.2h-1.4v-0.2c0.1,0,0.1-0.1,0.1-0.2c0-0.1-0.1-0.2-0.2-0.3L150.3,9.8z"/>
	<path class="st0" d="M158.7,12h-1.1c-0.1,0-0.1,0-0.1,0.1c0,0-0.1,0.1-0.1,0.2h-0.1v-1.6h0.1c0,0.1,0,0.2,0.1,0.2
		c0,0,0.1,0.1,0.1,0.1h2.1v0.2c-0.1,0-0.1,0.1-0.2,0.1c0,0.1,0,0.1,0,0.2v1.4c0,0.1,0,0.2,0,0.2c0,0.1,0.1,0.1,0.2,0.1v0.1
		c-0.8,0.7-1.6,1.1-2.4,1.1c-0.7,0-1.3-0.3-1.7-0.8c-0.6-0.6-0.8-1.5-0.8-2.7c0-1.1,0.2-1.9,0.7-2.5c0.5-0.6,1.1-0.9,1.9-0.9
		c0.2,0,0.5,0,0.7,0.1c0.2,0.1,0.5,0.2,0.7,0.4c0.1,0.1,0.2,0.1,0.3,0.1c0,0,0.1,0,0.2-0.1l0.1,0.1l-0.5,1.6l-0.1-0.1
		c0-0.1,0-0.2,0-0.2c0,0-0.1-0.1-0.1-0.2c-0.1-0.1-0.3-0.3-0.6-0.4c-0.2-0.1-0.5-0.2-0.7-0.2c-0.5,0-0.8,0.2-1.1,0.6
		c-0.3,0.4-0.5,1-0.5,1.8c0,0.7,0.2,1.3,0.5,1.7c0.3,0.4,0.7,0.6,1.2,0.6c0.2,0,0.5,0,0.7-0.1c0.2-0.1,0.4-0.2,0.6-0.3V12z"/>
	<path class="st0" d="M166.3,12.1l0.6,1.4l-0.1,0.1c-0.1-0.1-0.1-0.1-0.1-0.1c0,0-0.1,0.1-0.3,0.2c-0.4,0.3-0.7,0.5-0.9,0.7
		c-0.2,0.1-0.5,0.2-0.9,0.2c-0.7,0-1.2-0.2-1.7-0.7c-0.3-0.3-0.5-0.6-0.6-1.1c-0.2-0.5-0.3-1-0.3-1.6c0-0.8,0.2-1.5,0.5-2.1
		c0.5-0.9,1.2-1.3,2.1-1.3c0.3,0,0.6,0.1,0.9,0.2c0.2,0.1,0.6,0.3,0.9,0.7c0.2,0.2,0.3,0.2,0.3,0.2c0,0,0.1,0,0.1-0.1l0.1,0.1
		l-0.6,1.4l-0.1-0.1c0-0.1,0-0.1,0-0.1c0-0.1,0-0.2-0.1-0.3c-0.1-0.1-0.1-0.2-0.3-0.3c-0.4-0.3-0.8-0.5-1.2-0.5
		c-0.5,0-0.9,0.2-1.2,0.6c-0.3,0.4-0.5,1-0.5,1.7c0,0.7,0.2,1.3,0.5,1.7c0.3,0.4,0.7,0.6,1.2,0.6c0.4,0,0.8-0.2,1.2-0.5
		c0.1-0.1,0.2-0.2,0.3-0.3c0.1-0.1,0.1-0.2,0.1-0.3C166.2,12.3,166.2,12.2,166.3,12.1L166.3,12.1z"/>
	<path class="st0" d="M171.1,11.5h-2.5v2.4c0,0.1,0,0.2,0,0.2c0,0.1,0.1,0.1,0.2,0.1v0.2h-1.4v-0.2c0.1,0,0.1-0.1,0.2-0.1
		c0-0.1,0-0.1,0-0.2V8.2c0-0.1,0-0.2,0-0.2s-0.1-0.1-0.2-0.1V7.7h1.4v0.2c-0.1,0-0.1,0.1-0.2,0.1c0,0.1,0,0.1,0,0.2v2.1h2.5V8.2
		c0-0.1,0-0.2,0-0.2c0-0.1-0.1-0.1-0.2-0.1V7.7h1.4v0.2c-0.1,0-0.1,0.1-0.2,0.1s0,0.1,0,0.2v5.6c0,0.1,0,0.2,0,0.2
		c0,0.1,0.1,0.1,0.2,0.1v0.2h-1.4v-0.2c0.1,0,0.1-0.1,0.2-0.1c0-0.1,0-0.1,0-0.2V11.5z"/>
	<path class="st0" d="M173.3,13.9V8.2c0-0.1,0-0.2,0-0.2c0-0.1-0.1-0.1-0.2-0.1V7.7h1.4v0.2c-0.1,0-0.1,0.1-0.2,0.1
		c0,0.1,0,0.1,0,0.2v5.6c0,0.1,0,0.2,0,0.2c0,0.1,0.1,0.1,0.2,0.1v0.2h-1.4v-0.2c0.1,0,0.1-0.1,0.2-0.1
		C173.2,14,173.3,14,173.3,13.9"/>
	<path class="st0" d="M178.4,12.7h-2l-0.3,0.9c0,0.1-0.1,0.2-0.1,0.3c0,0.1,0.1,0.2,0.2,0.3v0.2h-1.4v-0.2c0.1,0,0.1-0.1,0.2-0.1
		c0-0.1,0.1-0.2,0.2-0.4l1.6-5.1c0.1-0.2,0.1-0.3,0.1-0.4c0-0.2-0.1-0.3-0.2-0.3V7.7h1.5v0.2C178.1,7.9,178,8,178,8.1
		c0,0.1,0,0.2,0.1,0.3l1.6,5.1c0.1,0.2,0.1,0.4,0.2,0.4c0.1,0.1,0.1,0.1,0.2,0.2v0.2h-1.6v-0.2c0.1,0,0.2-0.1,0.2-0.3
		c0-0.1,0-0.2-0.1-0.3L178.4,12.7z M178.1,11.8l-0.7-2.4l-0.7,2.4H178.1z"/>
	<path class="st0" d="M182.5,7.6c0.8,0,1.4,0.3,1.8,0.9c0.5,0.7,0.7,1.5,0.7,2.5c0,0.6-0.1,1.2-0.3,1.8c-0.4,1.1-1.2,1.6-2.2,1.6
		c-0.7,0-1.3-0.3-1.8-0.9c-0.2-0.3-0.4-0.7-0.5-1.2c-0.1-0.4-0.2-0.8-0.2-1.3c0-0.7,0.1-1.3,0.3-1.8C180.8,8.1,181.5,7.6,182.5,7.6
		 M182.5,8.7c-0.4,0-0.8,0.2-1,0.6c-0.3,0.4-0.5,1-0.5,1.8c0,0.7,0.2,1.3,0.5,1.8c0.3,0.4,0.6,0.6,1,0.6c0.4,0,0.8-0.2,1-0.6
		c0.2-0.2,0.3-0.5,0.4-0.8c0.1-0.3,0.1-0.6,0.1-0.9c0-0.8-0.2-1.3-0.5-1.8C183.3,8.9,182.9,8.7,182.5,8.7"/>
	<path class="st0" d="M187.5,13.9V8.2c0-0.1,0-0.2,0-0.2c0-0.1-0.1-0.1-0.2-0.1V7.7h1.4v0.2c-0.1,0-0.1,0.1-0.2,0.1
		c0,0.1,0,0.1,0,0.2v5.6c0,0.1,0,0.2,0,0.2c0,0.1,0.1,0.1,0.2,0.1v0.2h-1.4v-0.2c0.1,0,0.1-0.1,0.2-0.1
		C187.5,14,187.5,14,187.5,13.9"/>
	<path class="st0" d="M190.5,9.8v4.1c0,0.1,0,0.2,0,0.2c0,0.1,0.1,0.1,0.2,0.1v0.2h-1.3v-0.2c0.1,0,0.1-0.1,0.2-0.1
		c0-0.1,0-0.1,0-0.2V8.2c0-0.1,0-0.2,0-0.2c0-0.1-0.1-0.1-0.2-0.1V7.7h1.5v0.2c-0.1,0-0.1,0.1-0.1,0.2c0,0.1,0,0.2,0.1,0.3l2.4,3.8
		v-4c0-0.1,0-0.2,0-0.2c0-0.1-0.1-0.1-0.2-0.1V7.7h1.3v0.2c-0.1,0-0.1,0.1-0.2,0.1c0,0.1,0,0.1,0,0.2v5.6c0,0.1,0,0.2,0,0.2
		c0,0.1,0.1,0.1,0.2,0.1v0.2H193v-0.2c0.1,0,0.1-0.1,0.1-0.2c0-0.1-0.1-0.2-0.2-0.3L190.5,9.8z"/>
	<path class="st0" d="M197.4,8.8v5.1c0,0.1,0,0.2,0,0.2c0,0.1,0.1,0.1,0.2,0.1v0.2h-1.4v-0.2c0.1,0,0.1-0.1,0.2-0.1
		c0-0.1,0-0.1,0-0.2V8.8h-1.3c-0.1,0-0.1,0-0.1,0.1c0,0-0.1,0.1-0.1,0.2h-0.1V7.4h0.1c0,0.1,0.1,0.2,0.1,0.2c0,0,0.1,0.1,0.1,0.1
		h3.6c0.1,0,0.1,0,0.1-0.1c0,0,0.1-0.1,0.1-0.2h0.1v1.7H199c0-0.1,0-0.2-0.1-0.2c0,0-0.1-0.1-0.1-0.1H197.4z"/>
	<path class="st0" d="M200.7,11.4v1.8h2.8c0.1,0,0.1,0,0.1-0.1c0,0,0.1-0.1,0.1-0.2h0.1v1.7h-0.1c0-0.1,0-0.2-0.1-0.2
		c0,0-0.1-0.1-0.1-0.1h-3.9v-0.2c0.1,0,0.1-0.1,0.2-0.1c0-0.1,0-0.1,0-0.2V8.2c0-0.1,0-0.2,0-0.2c0-0.1-0.1-0.1-0.2-0.1V7.7h3.9
		c0.1,0,0.1,0,0.1-0.1c0,0,0.1-0.1,0.1-0.2h0.1v1.7h-0.1c0-0.1,0-0.2-0.1-0.2c0,0-0.1-0.1-0.1-0.1h-2.7v1.6h1.8c0.1,0,0.1,0,0.1-0.1
		c0,0,0.1-0.1,0.1-0.2h0.1v1.7h-0.1c0-0.1,0-0.2-0.1-0.2c0,0-0.1-0.1-0.1-0.1H200.7z"/>
	<path class="st0" d="M205.6,11.6v2.2c0,0.1,0,0.2,0,0.2c0,0.1,0.1,0.1,0.2,0.1v0.2h-1.4v-0.2c0.1,0,0.1-0.1,0.2-0.1
		c0-0.1,0-0.1,0-0.2V8.2c0-0.1,0-0.2,0-0.2c0-0.1-0.1-0.1-0.2-0.1V7.7h2.7c0.3,0,0.6,0,0.8,0.1c0.2,0.1,0.4,0.2,0.5,0.3
		c0.2,0.2,0.3,0.4,0.4,0.7c0.1,0.3,0.1,0.6,0.1,0.9c0,1.1-0.4,1.7-1.2,1.9l0.8,1.8c0.1,0.3,0.3,0.5,0.3,0.6c0.1,0.1,0.2,0.1,0.3,0.2
		v0.2h-1.6v-0.2c0.1,0,0.2-0.1,0.2-0.2c0-0.1,0-0.2-0.1-0.4l-0.9-2H205.6z M205.6,10.5h1.5c0.2,0,0.4,0,0.5,0c0.1,0,0.2-0.1,0.2-0.1
		c0.2-0.1,0.2-0.4,0.2-0.7c0-0.3-0.1-0.6-0.2-0.7c-0.1-0.1-0.2-0.1-0.2-0.1c-0.1,0-0.2,0-0.5,0h-1.5V10.5z"/>
	<path class="st0" d="M210.8,9.8v4.1c0,0.1,0,0.2,0,0.2c0,0.1,0.1,0.1,0.2,0.1v0.2h-1.3v-0.2c0.1,0,0.1-0.1,0.2-0.1
		c0-0.1,0-0.1,0-0.2V8.2c0-0.1,0-0.2,0-0.2c0-0.1-0.1-0.1-0.2-0.1V7.7h1.5v0.2c-0.1,0-0.1,0.1-0.1,0.2c0,0.1,0,0.2,0.1,0.3l2.4,3.8
		v-4c0-0.1,0-0.2,0-0.2c0-0.1-0.1-0.1-0.2-0.1V7.7h1.3v0.2c-0.1,0-0.1,0.1-0.2,0.1c0,0.1,0,0.1,0,0.2v5.6c0,0.1,0,0.2,0,0.2
		c0,0.1,0.1,0.1,0.2,0.1v0.2h-1.4v-0.2c0.1,0,0.1-0.1,0.1-0.2c0-0.1-0.1-0.2-0.2-0.3L210.8,9.8z"/>
	<path class="st0" d="M218.6,12.7h-2l-0.3,0.9c0,0.1-0.1,0.2-0.1,0.3c0,0.1,0.1,0.2,0.2,0.3v0.2h-1.4v-0.2c0.1,0,0.1-0.1,0.2-0.1
		c0-0.1,0.1-0.2,0.2-0.4l1.6-5.1c0.1-0.2,0.1-0.3,0.1-0.4c0-0.2-0.1-0.3-0.2-0.3V7.7h1.5v0.2c-0.1,0.1-0.2,0.2-0.2,0.3
		c0,0.1,0,0.2,0.1,0.3l1.6,5.1c0.1,0.2,0.1,0.4,0.2,0.4c0.1,0.1,0.1,0.1,0.2,0.2v0.2h-1.6v-0.2c0.1,0,0.2-0.1,0.2-0.3
		c0-0.1,0-0.2-0.1-0.3L218.6,12.7z M218.3,11.8l-0.7-2.4l-0.7,2.4H218.3z"/>
	<path class="st0" d="M222.5,8.8v5.1c0,0.1,0,0.2,0,0.2c0,0.1,0.1,0.1,0.2,0.1v0.2h-1.4v-0.2c0.1,0,0.1-0.1,0.2-0.1
		c0-0.1,0-0.1,0-0.2V8.8h-1.3c-0.1,0-0.1,0-0.1,0.1c0,0-0.1,0.1-0.1,0.2h-0.1V7.4h0.1c0,0.1,0.1,0.2,0.1,0.2c0,0,0.1,0.1,0.1,0.1
		h3.6c0.1,0,0.1,0,0.1-0.1c0,0,0.1-0.1,0.1-0.2h0.1v1.7h-0.1c0-0.1,0-0.2-0.1-0.2c0,0-0.1-0.1-0.1-0.1H222.5z"/>
	<path class="st0" d="M224.8,13.9V8.2c0-0.1,0-0.2,0-0.2c0-0.1-0.1-0.1-0.2-0.1V7.7h1.4v0.2c-0.1,0-0.1,0.1-0.2,0.1
		c0,0.1,0,0.1,0,0.2v5.6c0,0.1,0,0.2,0,0.2c0,0.1,0.1,0.1,0.2,0.1v0.2h-1.4v-0.2c0.1,0,0.1-0.1,0.2-0.1
		C224.8,14,224.8,14,224.8,13.9"/>
	<path class="st0" d="M229.1,7.6c0.8,0,1.4,0.3,1.8,0.9c0.5,0.7,0.7,1.5,0.7,2.5c0,0.6-0.1,1.2-0.3,1.8c-0.4,1.1-1.2,1.6-2.2,1.6
		c-0.7,0-1.3-0.3-1.8-0.9c-0.2-0.3-0.4-0.7-0.5-1.2c-0.1-0.4-0.2-0.8-0.2-1.3c0-0.7,0.1-1.3,0.3-1.8C227.4,8.1,228.1,7.6,229.1,7.6
		 M229.2,8.7c-0.4,0-0.8,0.2-1,0.6c-0.3,0.4-0.5,1-0.5,1.8c0,0.7,0.2,1.3,0.5,1.8c0.3,0.4,0.6,0.6,1,0.6c0.4,0,0.8-0.2,1-0.6
		c0.2-0.2,0.3-0.5,0.4-0.8c0.1-0.3,0.1-0.6,0.1-0.9c0-0.8-0.2-1.3-0.5-1.8C229.9,8.9,229.6,8.7,229.2,8.7"/>
	<path class="st0" d="M233.4,9.8v4.1c0,0.1,0,0.2,0,0.2c0,0.1,0.1,0.1,0.2,0.1v0.2h-1.3v-0.2c0.1,0,0.1-0.1,0.2-0.1
		c0-0.1,0-0.1,0-0.2V8.2c0-0.1,0-0.2,0-0.2c0-0.1-0.1-0.1-0.2-0.1V7.7h1.5v0.2c-0.1,0-0.1,0.1-0.1,0.2c0,0.1,0,0.2,0.1,0.3l2.4,3.8
		v-4c0-0.1,0-0.2,0-0.2c0-0.1-0.1-0.1-0.2-0.1V7.7h1.3v0.2c-0.1,0-0.1,0.1-0.2,0.1c0,0.1,0,0.1,0,0.2v5.6c0,0.1,0,0.2,0,0.2
		c0,0.1,0.1,0.1,0.2,0.1v0.2h-1.4v-0.2c0.1,0,0.1-0.1,0.1-0.2c0-0.1-0.1-0.2-0.2-0.3L233.4,9.8z"/>
	<path class="st0" d="M241.2,12.7h-2l-0.3,0.9c0,0.1-0.1,0.2-0.1,0.3c0,0.1,0.1,0.2,0.2,0.3v0.2h-1.4v-0.2c0.1,0,0.1-0.1,0.2-0.1
		c0-0.1,0.1-0.2,0.2-0.4l1.6-5.1c0.1-0.2,0.1-0.3,0.1-0.4c0-0.2-0.1-0.3-0.2-0.3V7.7h1.5v0.2c-0.1,0.1-0.2,0.2-0.2,0.3
		c0,0.1,0,0.2,0.1,0.3l1.6,5.1c0.1,0.2,0.1,0.4,0.2,0.4c0.1,0.1,0.1,0.1,0.2,0.2v0.2h-1.6v-0.2c0.1,0,0.2-0.1,0.2-0.3
		c0-0.1,0-0.2-0.1-0.3L241.2,12.7z M241,11.8l-0.7-2.4l-0.7,2.4H241z"/>
	<path class="st0" d="M244.5,13.3h2.7c0.1,0,0.1,0,0.1-0.1c0,0,0.1-0.1,0.1-0.2h0.1v1.7h-0.1c0-0.1,0-0.2-0.1-0.2
		c0,0-0.1-0.1-0.1-0.1h-3.8v-0.2c0.1,0,0.1-0.1,0.2-0.1s0-0.1,0-0.2V8.2c0-0.1,0-0.2,0-0.2c0-0.1-0.1-0.1-0.2-0.1V7.7h1.4v0.2
		c-0.1,0-0.1,0.1-0.2,0.1c0,0.1,0,0.1,0,0.2V13.3z"/>
	<path class="st0" d="M253.6,8.3l-0.5,1.6L253,9.8c0,0,0-0.1,0-0.1c0-0.1-0.1-0.2-0.2-0.4c-0.4-0.4-0.8-0.6-1.3-0.6
		c-0.2,0-0.4,0-0.6,0.1c-0.1,0.1-0.2,0.2-0.3,0.3c-0.1,0.1-0.1,0.3-0.1,0.4c0,0.2,0.1,0.4,0.3,0.5c0.1,0,0.3,0.1,0.7,0.1l0.5,0.1
		c0.3,0,0.5,0.1,0.7,0.2c0.2,0.1,0.3,0.2,0.5,0.4c0.1,0.2,0.3,0.4,0.3,0.6c0.1,0.3,0.1,0.5,0.1,0.8c0,0.5-0.1,0.9-0.3,1.2
		c-0.2,0.3-0.5,0.6-0.8,0.7c-0.3,0.1-0.6,0.2-0.9,0.2c-0.6,0-1.1-0.2-1.7-0.6c-0.1-0.1-0.2-0.1-0.2-0.1c0,0-0.1,0-0.1,0.1l-0.1-0.1
		l0.5-1.6l0.1,0.1v0.1c0,0.1,0,0.3,0.1,0.4c0.1,0.2,0.3,0.4,0.6,0.5c0.3,0.1,0.6,0.2,0.8,0.2c0.3,0,0.5-0.1,0.7-0.2
		c0.1-0.1,0.2-0.2,0.3-0.3c0.1-0.1,0.1-0.3,0.1-0.4c0-0.2-0.1-0.4-0.2-0.5c-0.1-0.1-0.3-0.1-0.7-0.2l-0.5-0.1
		c-0.3-0.1-0.6-0.1-0.7-0.1c-0.1,0-0.3-0.1-0.4-0.2c-0.2-0.1-0.3-0.4-0.5-0.7c-0.1-0.3-0.1-0.6-0.1-0.9c0-0.6,0.1-1,0.4-1.4
		c0.3-0.5,0.8-0.7,1.5-0.7c0.3,0,0.5,0,0.8,0.1c0.2,0.1,0.5,0.2,0.9,0.5c0.1,0.1,0.2,0.1,0.2,0.1C253.4,8.3,253.5,8.3,253.6,8.3
		L253.6,8.3z"/>
	<path class="st0" d="M258.5,12.1l0.6,1.4l-0.1,0.1c-0.1-0.1-0.1-0.1-0.1-0.1s-0.1,0.1-0.3,0.2c-0.4,0.3-0.7,0.5-0.9,0.7
		c-0.2,0.1-0.5,0.2-0.9,0.2c-0.7,0-1.2-0.2-1.7-0.7c-0.3-0.3-0.5-0.6-0.6-1.1c-0.2-0.5-0.3-1-0.3-1.6c0-0.8,0.2-1.5,0.5-2.1
		c0.5-0.9,1.2-1.3,2.1-1.3c0.3,0,0.6,0.1,0.9,0.2c0.2,0.1,0.6,0.3,0.9,0.7c0.2,0.2,0.3,0.2,0.3,0.2s0.1,0,0.1-0.1l0.1,0.1l-0.6,1.4
		l-0.1-0.1c0-0.1,0-0.1,0-0.1c0-0.1,0-0.2-0.1-0.3c-0.1-0.1-0.1-0.2-0.3-0.3c-0.4-0.3-0.8-0.5-1.2-0.5c-0.5,0-0.9,0.2-1.2,0.6
		c-0.3,0.4-0.5,1-0.5,1.7c0,0.7,0.2,1.3,0.5,1.7c0.3,0.4,0.7,0.6,1.2,0.6c0.4,0,0.8-0.2,1.2-0.5c0.1-0.1,0.2-0.2,0.3-0.3
		c0.1-0.1,0.1-0.2,0.1-0.3C258.4,12.3,258.4,12.2,258.5,12.1L258.5,12.1z"/>
	<path class="st0" d="M263.3,11.5h-2.5v2.4c0,0.1,0,0.2,0,0.2c0,0.1,0.1,0.1,0.2,0.1v0.2h-1.4v-0.2c0.1,0,0.1-0.1,0.2-0.1
		c0-0.1,0-0.1,0-0.2V8.2c0-0.1,0-0.2,0-0.2s-0.1-0.1-0.2-0.1V7.7h1.4v0.2c-0.1,0-0.1,0.1-0.2,0.1c0,0.1,0,0.1,0,0.2v2.1h2.5V8.2
		c0-0.1,0-0.2,0-0.2c0-0.1-0.1-0.1-0.2-0.1V7.7h1.4v0.2c-0.1,0-0.1,0.1-0.2,0.1c0,0.1,0,0.1,0,0.2v5.6c0,0.1,0,0.2,0,0.2
		c0,0.1,0.1,0.1,0.2,0.1v0.2h-1.4v-0.2c0.1,0,0.1-0.1,0.2-0.1c0-0.1,0-0.1,0-0.2V11.5z"/>
	<path class="st0" d="M267.6,7.6c0.8,0,1.4,0.3,1.8,0.9c0.5,0.7,0.7,1.5,0.7,2.5c0,0.6-0.1,1.2-0.3,1.8c-0.4,1.1-1.2,1.6-2.2,1.6
		c-0.7,0-1.3-0.3-1.8-0.9c-0.2-0.3-0.4-0.7-0.5-1.2c-0.1-0.4-0.2-0.8-0.2-1.3c0-0.7,0.1-1.3,0.3-1.8C265.9,8.1,266.6,7.6,267.6,7.6
		 M267.6,8.7c-0.4,0-0.8,0.2-1,0.6c-0.3,0.4-0.5,1-0.5,1.8c0,0.7,0.2,1.3,0.5,1.8c0.3,0.4,0.6,0.6,1,0.6c0.4,0,0.8-0.2,1-0.6
		c0.2-0.2,0.3-0.5,0.4-0.8c0.1-0.3,0.1-0.6,0.1-0.9c0-0.8-0.2-1.3-0.5-1.8C268.4,8.9,268,8.7,267.6,8.7"/>
	<path class="st0" d="M273.2,7.6c0.8,0,1.4,0.3,1.8,0.9c0.5,0.7,0.7,1.5,0.7,2.5c0,0.6-0.1,1.2-0.3,1.8c-0.4,1.1-1.2,1.6-2.2,1.6
		c-0.7,0-1.3-0.3-1.8-0.9c-0.2-0.3-0.4-0.7-0.5-1.2c-0.1-0.4-0.2-0.8-0.2-1.3c0-0.7,0.1-1.3,0.3-1.8C271.4,8.1,272.2,7.6,273.2,7.6
		 M273.2,8.7c-0.4,0-0.8,0.2-1,0.6c-0.3,0.4-0.5,1-0.5,1.8c0,0.7,0.2,1.3,0.5,1.8c0.3,0.4,0.6,0.6,1,0.6c0.4,0,0.8-0.2,1-0.6
		c0.2-0.2,0.3-0.5,0.4-0.8c0.1-0.3,0.1-0.6,0.1-0.9c0-0.8-0.2-1.3-0.5-1.8C273.9,8.9,273.6,8.7,273.2,8.7"/>
	<path class="st0" d="M277.5,13.3h2.7c0.1,0,0.1,0,0.1-0.1c0,0,0.1-0.1,0.1-0.2h0.1v1.7h-0.1c0-0.1,0-0.2-0.1-0.2
		c0,0-0.1-0.1-0.1-0.1h-3.8v-0.2c0.1,0,0.1-0.1,0.2-0.1s0-0.1,0-0.2V8.2c0-0.1,0-0.2,0-0.2c0-0.1-0.1-0.1-0.2-0.1V7.7h1.4v0.2
		c-0.1,0-0.1,0.1-0.2,0.1c0,0.1,0,0.1,0,0.2V13.3z"/>
	<path class="st1" d="M4.9,18.6l0.4-1.2L5,17.1c0,0-0.1-0.1-0.1-0.1c-0.1,0-0.1,0-0.2,0.1l-0.1,0l0.3-0.9l0.1,0c0,0.1,0,0.1,0,0.1
		c0,0,0.1,0.1,0.1,0.1l1.7,1.6c0.1,0.1,0.1,0.1,0.1,0.1c0.1,0,0.1,0,0.2-0.1l0.1,0l-0.3,0.9l-0.1,0c0-0.1,0-0.1-0.1-0.1
		c0,0-0.1,0-0.1,0l-2.3,0.4c-0.1,0-0.2,0-0.2,0.1c0,0-0.1,0.1-0.1,0.1l-0.1,0l0.3-1l0.1,0c0,0.1,0,0.1,0.1,0.2c0,0,0.1,0,0.1,0
		L4.9,18.6z M5.3,18.5l1.1-0.1l-0.8-0.7L5.3,18.5z"/>
</g>
<g>
	<g>
		<defs>
			<path id="SVGID_3_" d="M0,24.1c0,13.3,10.8,24.1,24.1,24.1c13.3,0,24.1-10.8,24.1-24.1C48.2,10.8,37.4,0,24.1,0
				C10.8,0,0,10.8,0,24.1"/>
		</defs>
		<clipPath id="SVGID_4_">
			<use xlink:href="#SVGID_3_"  style="overflow:visible;"/>
		</clipPath>
		
			<linearGradient id="SVGID_5_" gradientUnits="userSpaceOnUse" x1="-74.1626" y1="769.7947" x2="-73.1626" y2="769.7947" gradientTransform="matrix(30.7587 25.7604 25.7604 -30.7587 -17541.2188 25598.8262)">
			<stop  offset="0" style="stop-color:#F9EC67"/>
			<stop  offset="0.1124" style="stop-color:#FFF459"/>
			<stop  offset="0.3596" style="stop-color:#CBBE00"/>
			<stop  offset="1" style="stop-color:#736B00"/>
		</linearGradient>
		<polygon class="st2" points="19.9,-23.7 71.9,19.9 28.3,71.9 -23.7,28.3 		"/>
	</g>
	<g>
		<defs>
			<path id="SVGID_6_" d="M1.2,24.1c0,12.6,10.2,22.9,22.9,22.9c12.6,0,22.9-10.2,22.9-22.9c0-12.6-10.2-22.9-22.9-22.9
				C11.5,1.2,1.2,11.5,1.2,24.1"/>
		</defs>
		<clipPath id="SVGID_7_">
			<use xlink:href="#SVGID_6_"  style="overflow:visible;"/>
		</clipPath>
		
			<linearGradient id="SVGID_8_" gradientUnits="userSpaceOnUse" x1="-74.5004" y1="770.0612" x2="-73.5004" y2="770.0612" gradientTransform="matrix(29.2167 24.469 24.469 -29.2167 -16655.8613 24333.9492)">
			<stop  offset="0" style="stop-color:#CBBE00"/>
			<stop  offset="0.1479" style="stop-color:#CDBF00"/>
			<stop  offset="0.2517" style="stop-color:#D2C400"/>
			<stop  offset="0.3421" style="stop-color:#D9CC00"/>
			<stop  offset="0.4246" style="stop-color:#E4D637"/>
			<stop  offset="0.5013" style="stop-color:#F1E45D"/>
			<stop  offset="0.5225" style="stop-color:#F5E969"/>
			<stop  offset="0.7303" style="stop-color:#CBBE00"/>
			<stop  offset="1" style="stop-color:#A19600"/>
		</linearGradient>
		<polygon class="st3" points="20.1,-21.3 69.4,20.1 28.1,69.4 -21.3,28.1 		"/>
	</g>
</g>
<g>
	<path class="st4" d="M8.1,24.1c0-8.8,7.1-15.9,16-15.9c8.8,0,15.9,7.1,15.9,15.9C40,32.9,32.9,40,24.1,40
		C15.3,40,8.1,32.9,8.1,24.1"/>
	<path class="st5" d="M9.6,29c0.9-0.2,11.7-1.8,14.6,10.6C17.3,39.5,11.5,35.1,9.6,29L9.6,29"/>
	<path class="st6" d="M34,22.9h5.4C38.8,15,32.2,8.8,24.1,8.8c-8,0-14.6,6.2-15.3,14.1h5.4V19h4v-4h3.9v-3.9h3.9V15h3.9v4H34
		L34,22.9z"/>
	<path class="st6" d="M26.5,28.1c0.5-0.6,0.7-1.3,0.7-2c0-1.8-1.4-3.2-3.1-3.2c-1.7,0-3.1,1.4-3.1,3.2c0,0.8,0.3,1.5,0.7,2l-0.1,0
		l-12.3,0v0l0-0.1c-0.2-0.6-0.3-1.3-0.4-2h5.4v-3.1h3.9V19h3.9V15h3.9V19h3.9v3.9H34l0,3.1h5.3c-0.2,1.1-0.3,2.1-0.3,2.1l-12.3,0"/>
	<path class="st5" d="M38.7,29c-0.9-0.2-11.7-1.8-14.6,10.6C30.9,39.5,36.7,35.1,38.7,29L38.7,29"/>
	<path class="st7" d="M25.9,4.1c-0.4-0.1-0.6,0.1-1,0.3c-0.5,0.2-0.6,0.7-0.8,1c0.2-0.5,0.3-0.6,0.5-1.1c0.1-0.4,0.3-0.6,0.2-1
		C24.8,2.7,24,1.9,24,1.9S23.1,2.7,23,3.3c-0.1,0.4,0.1,0.7,0.2,1c0.1,0.4,0.3,0.6,0.5,1.1c-0.2-0.3-0.3-0.7-0.8-1
		c-0.3-0.2-0.5-0.3-0.8-0.3c-0.5,0-0.8,0.5-0.7,1C21.5,5.4,22,5.6,22,5.6s-0.2-0.3,0-0.5C22.1,4.9,22.3,5,22.6,5
		C23,5.1,23,5.4,23.2,5.6c0.3,0.3,0.5,0.9,0.5,0.9s-0.3,0.2-0.3,0.3c0,0.2,0.2,0.4,0.2,0.4L24,7.6l0.3-0.4c0,0,0.2-0.2,0.2-0.4
		c0-0.2-0.3-0.3-0.3-0.3s0.3-0.6,0.5-0.9C24.9,5.4,25,5.1,25.3,5c0.3,0,0.5-0.1,0.7,0.1c0.1,0.2-0.1,0.5-0.1,0.5s0.5-0.3,0.6-0.6
		C26.6,4.7,26.4,4.2,25.9,4.1"/>
	<path class="st7" d="M9.6,10.7c-0.5,0.5-1.3,0.6-1.9,0.3l0,0.1l2,1.8l0.1-0.1c-0.4-0.6-0.3-1.4,0.2-2c0.5,0.6,0.7,1.3,0.4,2
		l0.1,0.1L12,11L11.9,11c-0.6,0.3-1.4,0.2-2-0.3c0.5-0.5,1.3-0.6,1.9-0.3l0.1-0.1l-2-1.8L9.9,8.6c0.4,0.6,0.3,1.4-0.2,2
		c-0.5-0.6-0.7-1.3-0.4-2L9.3,8.5l-1.7,1.8l0.1,0.1C8.2,10.1,9,10.2,9.6,10.7"/>
	<path class="st7" d="M38,10.5c0.5,0.5,1.3,0.6,1.9,0.3l0.1,0.1l-1.9,1.9L38,12.6c0.3-0.6,0.3-1.4-0.2-2c-0.5,0.6-0.7,1.4-0.4,2
		l-0.1,0.1l-1.7-1.8l0.1-0.1c0.6,0.3,1.4,0.2,2-0.3c-0.5-0.5-1.3-0.6-1.9-0.3l-0.1-0.1l1.9-1.9l0.1,0.1c-0.3,0.6-0.3,1.4,0.2,2
		c0.5-0.6,0.7-1.4,0.4-2l0.1-0.1l1.7,1.8L40,10.2C39.4,9.9,38.6,10,38,10.5"/>
	<path class="st7" d="M7,14.7l-0.1-0.6l-0.7-0.4c0,0-0.1,0-0.1,0c0,0-0.1,0-0.1,0.1l-0.1,0l0.4-0.8l0.1,0c0,0.1,0,0.1,0,0.1
		c0,0,0,0.1,0.1,0.1l2.3,1.2c0,0,0.1,0,0.1,0c0,0,0.1,0,0.1-0.1l0.1,0l-0.4,0.8l-0.1,0c0-0.1,0-0.1,0-0.1c0,0,0-0.1-0.1-0.1
		l-0.9-0.5L7.8,16c0,0.1,0,0.1,0.1,0.1c0,0,0.1,0,0.1-0.1l0.1,0l-0.6,1.1l-0.1,0c0-0.1,0-0.1,0-0.1c0,0,0-0.1,0-0.2l0-0.2l-0.2-1.3
		l-1.8,0.4c-0.2,0-0.3,0.1-0.3,0.1c-0.1,0-0.1,0.1-0.2,0.1l-0.1,0l0.6-1.1l0.1,0c0,0.1,0,0.1,0,0.1c0,0,0.1,0,0.2,0L7,14.7z"/>
	<path class="st7" d="M4.7,18.1L5,17l-0.2-0.2c-0.1,0-0.1-0.1-0.1-0.1c-0.1,0-0.1,0-0.2,0.1l-0.1,0l0.3-0.9l0.1,0c0,0.1,0,0.1,0,0.1
		c0,0,0.1,0.1,0.1,0.1l1.5,1.5c0.1,0.1,0.1,0.1,0.2,0.1c0.1,0,0.1,0,0.2-0.1l0.1,0l-0.3,0.9l-0.1,0c0-0.1,0-0.1-0.1-0.2
		c0,0-0.1,0-0.2,0l-2,0.3c-0.1,0-0.2,0-0.2,0.1c0,0-0.1,0.1-0.1,0.1l-0.1,0L4,18l0.1,0c0,0.1,0,0.2,0.1,0.2c0,0,0.1,0,0.2,0
		L4.7,18.1z M5,18.1l0.9-0.1l-0.6-0.6L5,18.1z"/>
	<path class="st7" d="M5.2,20.1l-1.4-0.2c0,0-0.1,0-0.1,0c0,0-0.1,0-0.1,0.1l-0.1,0l0.1-0.8l0.1,0c0,0.1,0,0.1,0,0.1
		c0,0,0.1,0,0.1,0l2,0.3c0,0,0.1,0,0.1,0c0,0,0.1,0,0.1-0.1l0.1,0L6,20.5l-0.1,0c0-0.1,0-0.1-0.1-0.1c0,0-0.1,0-0.1,0l-1.5,1.1
		l1.4,0.2c0,0,0.1,0,0.1,0c0,0,0.1,0,0.1-0.1l0.1,0l-0.1,0.8l-0.1,0c0-0.1,0-0.1,0-0.1c0,0-0.1,0-0.1,0l-2-0.3c0,0-0.1,0-0.1,0
		c0,0-0.1,0.1-0.1,0.1l-0.1,0l0.1-0.9l0.1,0c0,0.1,0,0.1,0.1,0.1c0,0,0,0,0.1,0c0,0,0.1,0,0.1-0.1L5.2,20.1z"/>
	<path class="st7" d="M4.1,24.8l0-0.6c0,0,0-0.1,0-0.1c0,0-0.1,0-0.1-0.1L4,24l0.7,0l0,0.1c-0.1,0-0.1,0-0.1,0.1c0,0,0,0.1,0,0.1
		l0,1.2l-0.1,0c0-0.1,0-0.1-0.1-0.1c0,0-0.1,0-0.1,0l-0.5,0c0,0-0.1,0-0.1,0c0,0,0,0.1-0.1,0.1H3.5c-0.3-0.5-0.4-1-0.4-1.4
		c0-0.4,0.1-0.7,0.3-1c0.1-0.1,0.2-0.2,0.4-0.3c0.2-0.1,0.4-0.1,0.6-0.1c0.3,0,0.6,0.1,0.8,0.3c0.4,0.3,0.5,0.7,0.5,1.3
		c0,0.2-0.1,0.5-0.2,0.8c0,0.1-0.1,0.2-0.1,0.2c0,0,0,0.1,0,0.1l0,0.1l-0.6-0.3l0-0.1c0,0,0,0,0,0c0.1,0,0.1-0.1,0.2-0.2
		c0.1-0.2,0.2-0.4,0.2-0.7c0-0.3-0.1-0.5-0.2-0.7c-0.2-0.2-0.4-0.3-0.6-0.3c-0.2,0-0.4,0.1-0.6,0.2c-0.2,0.2-0.2,0.4-0.2,0.7
		c0,0.3,0,0.5,0.2,0.7L4.1,24.8z"/>
	<path class="st7" d="M5.2,30.4l-0.5,0.6l-0.1,0c0,0,0-0.1,0-0.1s-0.1-0.1-0.2-0.2C4.3,30.4,4.1,30.2,4,30c-0.1-0.2-0.2-0.4-0.2-0.6
		c-0.1-0.5-0.1-0.9,0-1.2C3.9,28,4,27.8,4.2,27.7c0.2-0.2,0.4-0.3,0.7-0.4c0.4-0.1,0.7-0.1,1,0.1c0.5,0.2,0.8,0.6,1,1.3
		c0.1,0.2,0.1,0.4,0.1,0.6c0,0.2,0,0.4-0.1,0.7c0,0.1-0.1,0.2,0,0.2c0,0,0,0.1,0.1,0.1l0,0.1l-0.7-0.3l0-0.1c0,0,0,0,0.1,0
		c0,0,0.1,0,0.1-0.1c0,0,0.1-0.1,0.1-0.2c0.1-0.3,0.1-0.6,0-0.9c-0.1-0.3-0.2-0.6-0.5-0.7C5.6,27.9,5.4,27.9,5,28
		c-0.3,0.1-0.5,0.3-0.7,0.6c-0.1,0.2-0.1,0.5,0,0.9c0.1,0.3,0.2,0.5,0.4,0.8c0.1,0.1,0.1,0.1,0.2,0.2c0,0,0.1,0,0.1,0
		C5.1,30.3,5.1,30.3,5.2,30.4L5.2,30.4z"/>
	<path class="st7" d="M6.3,32.9l-0.6-1.3L4.9,32c0,0-0.1,0-0.1,0.1c0,0,0,0.1,0,0.1l-0.1,0l-0.4-0.8l0.1,0c0,0,0.1,0.1,0.1,0.1
		c0,0,0.1,0,0.1,0l1.9-0.8c0,0,0.1,0,0.1-0.1c0,0,0-0.1,0-0.1l0.1,0l0.4,0.8l-0.1,0c0,0-0.1-0.1-0.1-0.1c0,0-0.1,0-0.1,0l-0.7,0.3
		l0.6,1.3l0.7-0.3c0,0,0.1,0,0.1-0.1c0,0,0-0.1,0-0.1l0.1,0L7.9,33l-0.1,0c0,0-0.1-0.1-0.1-0.1c0,0-0.1,0-0.1,0l-1.9,0.8
		c0,0-0.1,0-0.1,0.1c0,0,0,0.1,0,0.1l-0.1,0l-0.4-0.8l0.1,0c0,0,0.1,0.1,0.1,0.1c0,0,0.1,0,0.1,0L6.3,32.9z"/>
	<path class="st7" d="M8.2,33.8l-1.8,1c0,0-0.1,0.1-0.1,0.1c0,0,0,0.1,0,0.1l-0.1,0l-0.5-0.8l0.1,0c0,0,0.1,0.1,0.1,0.1
		c0,0,0.1,0,0.1,0l1.8-1c0,0,0.1,0,0.1-0.1c0,0,0-0.1,0-0.1l0.1,0l0.5,0.8l-0.1,0c0,0-0.1-0.1-0.1-0.1C8.2,33.8,8.2,33.8,8.2,33.8"
		/>
	<path class="st7" d="M8.1,36.6l-0.7-0.9l-0.3,0.1c-0.1,0-0.1,0-0.2,0.1c-0.1,0-0.1,0.1,0,0.2l-0.1,0l-0.5-0.7l0.1,0
		c0,0,0.1,0.1,0.1,0.1c0,0,0.1,0,0.2,0l2-0.4c0.1,0,0.1,0,0.2-0.1c0,0,0.1-0.1,0-0.2l0.1,0l0.6,0.8l-0.1,0c-0.1,0-0.1,0-0.2,0
		c0,0-0.1,0.1-0.1,0.2l-0.9,1.8c0,0.1-0.1,0.2-0.1,0.2c0,0,0,0.1,0,0.1l-0.1,0L7.6,37l0.1,0C7.7,37,7.8,37,7.8,37
		c0,0,0.1-0.1,0.1-0.1L8.1,36.6z M8.2,36.2l0.4-0.8l-0.9,0.2L8.2,36.2z"/>
	<path class="st7" d="M11.1,37.1c0.3,0.3,0.4,0.6,0.5,0.9c0.1,0.4-0.1,0.8-0.4,1.1c-0.3,0.3-0.6,0.4-1,0.4c-0.3,0-0.6-0.2-0.9-0.5
		c-0.3-0.3-0.4-0.6-0.5-0.9c-0.1-0.4,0.1-0.7,0.4-1c0.3-0.3,0.6-0.4,1-0.4C10.6,36.7,10.9,36.9,11.1,37.1 M10.8,37.5
		c-0.2-0.2-0.4-0.3-0.6-0.3c-0.2,0-0.4,0.1-0.6,0.3c-0.2,0.2-0.2,0.4-0.2,0.6c0,0.2,0.1,0.4,0.3,0.6c0.2,0.2,0.4,0.3,0.6,0.3
		c0.2,0,0.4-0.1,0.6-0.2c0.2-0.2,0.3-0.4,0.3-0.6C11.1,37.9,11,37.6,10.8,37.5"/>
	<path class="st7" d="M12.4,41.2l1.4-2.2c0,0,0-0.1,0-0.1c0,0,0-0.1-0.1-0.1l0-0.1l0.8,0.5l0,0.1c-0.1,0-0.1,0-0.1,0
		c0,0-0.1,0-0.1,0.1L13,41.5c0,0,0,0.1,0,0.1c0,0,0,0.1,0.1,0.1l0,0.1l-0.8-0.5l0-0.1C12.3,41.3,12.3,41.3,12.4,41.2
		C12.4,41.2,12.4,41.2,12.4,41.2"/>
	<path class="st7" d="M14.7,40.9L14,42.2c0,0,0,0.1,0,0.1c0,0,0,0.1,0.1,0.1l0,0.1l-0.7-0.4l0-0.1c0.1,0,0.1,0,0.1,0s0.1,0,0.1-0.1
		l0.9-1.8c0,0,0-0.1,0-0.1c0,0,0-0.1-0.1-0.1l0-0.1l0.9,0.4l0,0.1c-0.1,0-0.1,0-0.1,0c0,0,0,0.1,0,0.1l0.6,1.8l0.6-1.2
		c0,0,0-0.1,0-0.1s0-0.1-0.1-0.1l0-0.1l0.7,0.4l0,0.1c-0.1,0-0.1,0-0.1,0c0,0-0.1,0-0.1,0.1l-0.9,1.8c0,0,0,0.1,0,0.1
		c0,0,0,0.1,0.1,0.1l0,0.1L15.1,43l0-0.1c0.1,0,0.1,0,0.1,0c0,0,0,0,0-0.1c0,0,0-0.1-0.1-0.2L14.7,40.9z"/>
	<path class="st7" d="M18.3,42.1l-0.6,1.7c0,0,0,0.1,0,0.1c0,0,0,0.1,0.1,0.1l0,0.1l-0.8-0.3l0-0.1c0.1,0,0.1,0,0.1,0
		c0,0,0.1,0,0.1-0.1l0.6-1.7L17,41.6c0,0-0.1,0-0.1,0c0,0-0.1,0-0.1,0.1l-0.1,0L17,41l0.1,0c0,0.1,0,0.1,0,0.1c0,0,0,0,0.1,0.1
		l2,0.7c0,0,0.1,0,0.1,0c0,0,0.1,0,0.1-0.1l0.1,0l-0.2,0.7l-0.1,0c0-0.1,0-0.1,0-0.1c0,0,0,0-0.1-0.1L18.3,42.1z"/>
	<path class="st7" d="M19.7,43.5l-0.1,0.6l1.6,0.3c0,0,0.1,0,0.1,0c0,0,0.1,0,0.1-0.1l0.1,0L21.2,45l-0.1,0c0-0.1,0-0.1,0-0.1
		c0,0-0.1,0-0.1-0.1l-2.3-0.5l0-0.1c0.1,0,0.1,0,0.1,0c0,0,0-0.1,0.1-0.1l0.4-2c0,0,0-0.1,0-0.1c0,0,0-0.1-0.1-0.1l0-0.1l2.2,0.4
		c0,0,0.1,0,0.1,0c0,0,0.1,0,0.1-0.1l0.1,0L21.6,43l-0.1,0c0-0.1,0-0.1,0-0.1c0,0-0.1,0-0.1-0.1l-1.5-0.3L19.8,43l0.9,0.2
		c0,0,0.1,0,0.1,0c0,0,0.1,0,0.1-0.1l0.1,0l-0.1,0.7l-0.1,0c0-0.1,0-0.1,0-0.1c0,0-0.1,0-0.1-0.1L19.7,43.5z"/>
	<path class="st7" d="M22.4,43.9l0,0.8c0,0,0,0.1,0,0.1c0,0,0.1,0,0.1,0.1l0,0.1l-0.9,0l0-0.1c0.1,0,0.1,0,0.1-0.1c0,0,0-0.1,0-0.1
		l0.1-2c0,0,0-0.1,0-0.1c0,0-0.1,0-0.1-0.1l0-0.1l1.6,0.1c0.2,0,0.4,0,0.5,0.1s0.2,0.1,0.3,0.1c0.2,0.1,0.3,0.3,0.2,0.6
		c0,0.2-0.1,0.4-0.2,0.5c-0.1,0.1-0.3,0.2-0.5,0.2l0.4,0.7c0.1,0.1,0.1,0.2,0.2,0.3c0,0,0.1,0.1,0.2,0.1l0,0.1L23.4,45l0-0.1
		c0.1,0,0.1,0,0.1-0.1c0,0,0-0.1-0.1-0.2L23,44L22.4,43.9z M22.4,43.5l0.9,0c0.1,0,0.2,0,0.3,0c0.1,0,0.1-0.1,0.2-0.2
		c0-0.1,0-0.2-0.1-0.2c-0.1,0-0.2-0.1-0.3-0.1l-0.9,0L22.4,43.5z"/>
	<path class="st7" d="M25.3,43.3l0.1,1.4c0,0,0,0.1,0,0.1c0,0,0.1,0,0.1,0l0,0.1L24.8,45l0-0.1c0.1,0,0.1,0,0.1-0.1c0,0,0-0.1,0-0.1
		l-0.2-2c0,0,0-0.1,0-0.1c0,0-0.1,0-0.1,0l0-0.1l1-0.1l0,0.1c-0.1,0-0.1,0.1-0.1,0.1c0,0,0,0.1,0.1,0.1l1.5,1.2l-0.1-1.4
		c0,0,0-0.1,0-0.1c0,0-0.1,0-0.1,0l0-0.1l0.8-0.1l0,0.1c-0.1,0-0.1,0-0.1,0.1c0,0,0,0.1,0,0.1l0.2,2c0,0,0,0.1,0,0.1
		c0,0,0.1,0,0.1,0l0,0.1l-0.9,0.1l0-0.1c0.1,0,0.1,0,0.1-0.1c0,0,0,0,0-0.1c0,0-0.1-0.1-0.1-0.1L25.3,43.3z"/>
	<path class="st7" d="M29.8,43.6l-1.1,0.3l-0.1,0.3c0,0.1,0,0.1,0,0.2c0,0.1,0.1,0.1,0.2,0.1l0,0.1L28,44.7l0-0.1
		c0.1,0,0.1,0,0.1-0.1c0,0,0-0.1,0.1-0.2l0.4-2c0-0.1,0-0.1,0-0.2c0-0.1-0.1-0.1-0.2-0.1l0-0.1l0.9-0.3l0,0.1
		c-0.1,0.1-0.1,0.1-0.1,0.2c0,0,0,0.1,0.1,0.2l1.4,1.5c0.1,0.1,0.1,0.1,0.2,0.2c0,0,0.1,0,0.1,0l0,0.1l-1,0.3l0-0.1
		c0.1,0,0.1-0.1,0.1-0.2c0,0,0-0.1-0.1-0.2L29.8,43.6z M29.6,43.3L29,42.6l-0.2,0.9L29.6,43.3z"/>
	<path class="st7" d="M31.7,41.4l0.7,1.7c0,0,0,0.1,0.1,0.1c0,0,0.1,0,0.1,0l0,0.1l-0.8,0.3l0-0.1c0,0,0.1-0.1,0.1-0.1
		c0,0,0-0.1,0-0.1l-0.7-1.7l-0.7,0.3c0,0-0.1,0-0.1,0.1c0,0,0,0.1,0,0.1l-0.1,0L30,41.4l0.1,0c0,0,0.1,0.1,0.1,0.1c0,0,0.1,0,0.1,0
		l1.9-0.8c0,0,0.1,0,0.1-0.1c0,0,0-0.1,0-0.1l0.1,0l0.3,0.7l-0.1,0c0,0-0.1-0.1-0.1-0.1c0,0-0.1,0-0.1,0L31.7,41.4z"/>
	<path class="st7" d="M33,40.4l1,1.8c0,0,0,0.1,0.1,0.1s0.1,0,0.1,0l0,0.1l-0.8,0.4l0-0.1c0,0,0.1-0.1,0.1-0.1c0,0,0-0.1,0-0.1
		l-1-1.8c0,0,0-0.1-0.1-0.1c0,0-0.1,0-0.1,0l0-0.1l0.8-0.4l0,0.1c0,0-0.1,0.1-0.1,0.1C33,40.4,33,40.4,33,40.4"/>
	<path class="st7" d="M34.3,39.4c0.3-0.2,0.7-0.3,1-0.3c0.4,0,0.7,0.2,1,0.6c0.2,0.3,0.3,0.7,0.2,1.1c-0.1,0.3-0.3,0.6-0.7,0.8
		c-0.3,0.2-0.7,0.3-1,0.3c-0.4,0-0.7-0.2-1-0.6c-0.2-0.4-0.3-0.7-0.2-1.1C33.8,39.8,34,39.6,34.3,39.4 M34.6,39.7
		c-0.2,0.1-0.3,0.3-0.4,0.6c0,0.2,0,0.4,0.1,0.6c0.1,0.2,0.3,0.3,0.5,0.4c0.2,0,0.4,0,0.7-0.1c0.2-0.1,0.3-0.3,0.4-0.6
		c0-0.2,0-0.4-0.1-0.6c-0.1-0.2-0.3-0.3-0.5-0.4C35,39.6,34.8,39.6,34.6,39.7"/>
	<path class="st7" d="M36.6,38.7l1,1c0,0,0.1,0.1,0.1,0.1c0,0,0.1,0,0.1,0l0,0l-0.6,0.6l0,0c0,0,0-0.1,0-0.1c0,0,0-0.1,0-0.1
		l-1.4-1.5c0,0-0.1-0.1-0.1-0.1c0,0-0.1,0-0.1,0l0,0l0.7-0.7l0,0c0,0.1,0,0.1,0,0.1c0,0,0.1,0,0.1,0l1.9,0.1l-0.9-1
		c0,0-0.1-0.1-0.1-0.1c0,0-0.1,0-0.1,0l0,0l0.6-0.6l0,0c0,0,0,0.1,0,0.1c0,0,0,0.1,0,0.1l1.4,1.5c0,0,0.1,0.1,0.1,0.1
		c0,0,0.1,0,0.1,0l0,0L38.8,39l0,0c0-0.1,0-0.1,0-0.1c0,0,0,0-0.1,0c0,0-0.1,0-0.2,0L36.6,38.7z"/>
	<path class="st7" d="M40.4,36.2l-0.7,0.9l0.1,0.3c0,0.1,0.1,0.1,0.1,0.1c0.1,0,0.1,0,0.2,0l0,0l-0.6,0.7l0,0c0-0.1,0-0.1,0-0.1
		c0,0,0-0.1-0.1-0.2L38.6,36c0-0.1-0.1-0.1-0.1-0.2c0,0-0.1,0-0.2,0l0,0l0.6-0.8l0,0c0,0.1,0,0.1,0,0.2c0,0,0.1,0.1,0.2,0.1l2,0.4
		c0.1,0,0.2,0,0.2,0c0,0,0.1,0,0.1-0.1l0,0l-0.6,0.8l-0.1,0c0-0.1,0-0.2,0-0.2c0,0-0.1,0-0.2-0.1L40.4,36.2z M40,36.1l-0.9-0.2
		l0.4,0.8L40,36.1z"/>
	<path class="st7" d="M41.6,34.7l0.7-1.2c0,0,0-0.1,0-0.1c0,0,0-0.1-0.1-0.1l0-0.1l0.6,0.4l0,0.1c-0.1,0-0.1,0-0.1,0
		c0,0-0.1,0-0.1,0.1l-1.1,1.9l-0.1,0c0-0.1,0-0.1,0-0.1c0,0,0-0.1-0.1-0.1l-1.8-1c0,0-0.1,0-0.1,0c0,0-0.1,0-0.1,0.1l-0.1,0l0.4-0.8
		l0.1,0c0,0.1,0,0.1,0,0.1c0,0,0,0.1,0.1,0.1L41.6,34.7z"/>
	<path class="st7" d="M41.7,28.8l0.6,0.6l-0.1,0c0,0,0,0,0,0c0,0-0.1,0-0.2,0.1c-0.3,0.2-0.5,0.4-0.6,0.8c-0.1,0.1-0.1,0.3-0.1,0.4
		c0,0.1,0,0.2,0.1,0.2c0,0.1,0.1,0.1,0.2,0.1c0.1,0,0.2,0,0.3-0.1c0-0.1,0.1-0.2,0.2-0.4l0.2-0.3c0.1-0.2,0.2-0.3,0.3-0.4
		c0.1-0.1,0.2-0.2,0.3-0.3c0.1-0.1,0.2-0.1,0.4-0.1c0.1,0,0.3,0,0.4,0c0.2,0.1,0.4,0.2,0.5,0.4C44,30,44,30.2,44,30.5
		c0,0.2-0.1,0.4-0.1,0.6c-0.1,0.4-0.4,0.7-0.7,1c-0.1,0.1-0.1,0.1-0.1,0.1c0,0,0,0.1,0,0.1l-0.1,0l-0.6-0.6l0.1-0.1c0,0,0,0,0,0
		c0.1,0,0.1,0,0.2,0c0.1-0.1,0.2-0.2,0.4-0.3c0.1-0.2,0.2-0.3,0.3-0.5c0.1-0.2,0.1-0.4,0.1-0.5c0-0.1,0-0.2-0.1-0.2
		c0-0.1-0.1-0.1-0.2-0.1c-0.1,0-0.2,0-0.3,0.1c-0.1,0.1-0.1,0.2-0.2,0.4l-0.1,0.3c-0.1,0.2-0.2,0.4-0.2,0.4
		c-0.1,0.1-0.1,0.2-0.2,0.2c-0.1,0.1-0.2,0.2-0.4,0.2c-0.1,0-0.3,0-0.4,0c-0.2-0.1-0.4-0.2-0.5-0.5c-0.1-0.3-0.1-0.7,0-1.1
		c0.1-0.2,0.1-0.3,0.2-0.5c0.1-0.1,0.2-0.3,0.4-0.5c0.1-0.1,0.1-0.1,0.1-0.1C41.6,28.9,41.6,28.9,41.7,28.8L41.7,28.8z"/>
	<path class="st7" d="M44,26.8l0.6-0.3l0,0.1c0,0,0,0.1-0.1,0.1c0,0,0,0.1,0,0.2c0.1,0.2,0.1,0.4,0.1,0.6c0,0.2,0,0.3,0,0.5
		c-0.1,0.4-0.2,0.7-0.5,0.9c-0.1,0.1-0.3,0.2-0.5,0.3c-0.2,0.1-0.4,0.1-0.6,0c-0.3-0.1-0.5-0.2-0.7-0.4c-0.3-0.3-0.4-0.8-0.3-1.3
		c0-0.2,0.1-0.4,0.2-0.5s0.2-0.3,0.3-0.5c0.1-0.1,0.1-0.1,0.1-0.2c0,0,0-0.1,0-0.1l0,0l0.5,0.5l0,0c0,0,0,0,0,0c0,0,0,0,0,0
		c-0.1,0-0.2,0.1-0.3,0.3c-0.1,0.2-0.2,0.4-0.2,0.5c-0.1,0.3,0,0.5,0.1,0.7c0.1,0.2,0.3,0.4,0.6,0.4c0.2,0,0.5,0,0.7-0.2
		c0.2-0.1,0.3-0.4,0.3-0.6c0-0.2,0-0.4,0-0.7C44.2,26.9,44.1,26.8,44,26.8C44.1,26.8,44,26.8,44,26.8L44,26.8z"/>
	<path class="st7" d="M43.9,24l0,1.4l0.9,0c0,0,0.1,0,0.1,0c0,0,0-0.1,0.1-0.1l0.1,0l0,0.9l-0.1,0c0-0.1,0-0.1-0.1-0.1
		c0,0-0.1,0-0.1,0l-2-0.1c0,0-0.1,0-0.1,0c0,0,0,0.1-0.1,0.1l-0.1,0l0-0.9l0.1,0c0,0.1,0,0.1,0.1,0.1c0,0,0.1,0,0.1,0l0.7,0l0-1.4
		l-0.7,0c0,0-0.1,0-0.1,0c0,0,0,0.1-0.1,0.1l-0.1,0l0-0.9l0.1,0c0,0.1,0,0.1,0.1,0.1s0.1,0,0.1,0l2,0.1c0,0,0.1,0,0.1,0
		c0,0,0-0.1,0.1-0.1l0.1,0l0,0.9l-0.1,0c0-0.1,0-0.1-0.1-0.1c0,0-0.1,0-0.1,0L43.9,24z"/>
	<path class="st7" d="M41.7,21.5c-0.1-0.5,0-1,0.2-1.3c0.3-0.4,0.6-0.6,1.1-0.7c0.3,0,0.6,0,0.8,0.1c0.5,0.2,0.8,0.7,0.9,1.4
		c0.1,0.5,0,1-0.2,1.3c-0.1,0.2-0.3,0.3-0.5,0.5c-0.2,0.1-0.4,0.2-0.6,0.2c-0.3,0-0.6,0-0.9-0.1C42.2,22.7,41.8,22.3,41.7,21.5
		 M42.2,21.5c0,0.3,0.2,0.5,0.4,0.7c0.2,0.2,0.5,0.3,0.8,0.2c0.3,0,0.6-0.2,0.7-0.5c0.1-0.2,0.2-0.5,0.2-0.8c0-0.3-0.2-0.5-0.4-0.7
		c-0.1-0.1-0.3-0.2-0.4-0.2c-0.1,0-0.3,0-0.4,0c-0.3,0-0.6,0.2-0.8,0.5C42.3,20.9,42.2,21.2,42.2,21.5"/>
	<path class="st7" d="M40.9,18.3c-0.2-0.5-0.2-0.9,0-1.3c0.2-0.4,0.5-0.7,0.9-0.8c0.3-0.1,0.6-0.1,0.8,0c0.6,0.1,1,0.5,1.2,1.2
		c0.2,0.5,0.2,0.9,0,1.3c-0.1,0.2-0.2,0.4-0.4,0.5c-0.2,0.1-0.3,0.2-0.5,0.3c-0.3,0.1-0.6,0.1-0.9,0.1
		C41.6,19.3,41.2,18.9,40.9,18.3 M41.4,18.1c0.1,0.3,0.3,0.5,0.5,0.6c0.3,0.2,0.6,0.2,0.9,0.1c0.3-0.1,0.5-0.3,0.6-0.6
		c0.1-0.2,0.1-0.5,0-0.8c-0.1-0.3-0.3-0.5-0.5-0.6c-0.1-0.1-0.3-0.1-0.4-0.1c-0.1,0-0.3,0-0.4,0.1c-0.3,0.1-0.5,0.3-0.7,0.6
		C41.3,17.6,41.3,17.8,41.4,18.1"/>
	<path class="st7" d="M42.2,14.7L41.3,13c0,0,0-0.1-0.1-0.1c0,0-0.1,0-0.1,0l0-0.1l0.7-0.4l0,0.1c0,0-0.1,0.1-0.1,0.1
		c0,0,0,0.1,0,0.1l1.3,2.3l-0.1,0c0,0-0.1-0.1-0.1-0.1c0,0-0.1,0-0.1,0l-2.3,1.3c0,0-0.1,0-0.1,0.1c0,0,0,0.1,0,0.1l-0.1,0l-0.5-0.8
		l0.1,0c0,0,0.1,0.1,0.1,0.1c0,0,0.1,0,0.1,0L42.2,14.7z"/>
	<path class="st6" d="M325.9,39.1c0,3-2.4,5.4-5.4,5.4h-27.6c-3,0-5.4-2.4-5.4-5.4V11.6c0-3,2.4-5.4,5.4-5.4h27.6
		c3,0,5.4,2.4,5.4,5.4V39.1z"/>
	<path class="st4" d="M297.7,10.7v-1l1.3,0.1c0.2,0,0.4,0.1,0.4,0.2c0,0.1-0.1,0.2-0.2,0.3v0.4h6v1.1h-6v0.9h5.1v1.1h-5.1v0.8h6.6
		v1.1h-14.5v-1.1h6.5v-0.8h-5v-1.1h5v-0.9h-5.8v-1.1H297.7z M303.8,16.5v5.6c0,0.6-0.4,1.1-1.1,1.3c-0.6,0.2-1.1,0.2-1.7,0.2
		l-0.6-1.3l1.4,0c0.4,0,0.6-0.2,0.6-0.6v-0.2h-7.9v2.1h-1.4v-7.2h0.7H303.8z M302.4,17.6h-7.9v0.9h7.9V17.6z M302.4,19.6h-7.9v0.8
		h7.9V19.6z"/>
	<path class="st4" d="M315.9,10c0.3,0,0.4,0.1,0.4,0.2c0,0.1-0.1,0.2-0.3,0.4v10h4.1v-7.7l1.4,0.1c0.3,0,0.4,0.1,0.4,0.2
		c0,0.1-0.1,0.2-0.3,0.4v10h-1.5v-1.6h-10.3v1.6h-1.5V12.9l1.4,0.1c0.3,0,0.4,0.1,0.4,0.2c0,0.1-0.1,0.2-0.3,0.4v7h4.6V9.9L315.9,10
		z"/>
	<path class="st4" d="M293.3,30.2v-3.4l1.3,0.1c0.2,0,0.4,0.1,0.4,0.2c0,0.1-0.1,0.2-0.3,0.3v2.8h1.7v1.3h-1.6
		c0.7,1.7,1.4,3.1,2.4,4.2l-0.9,1c-0.6-0.9-1.1-1.9-1.5-2.9v6.6h-1.4v-6.4c-0.1,0.3-0.1,0.6-0.2,0.9c-0.3,1.1-0.5,2.1-0.9,3
		l-1.4-0.9c0.5-0.8,0.9-1.7,1.2-2.6c0.2-0.6,0.5-1.5,0.8-2.8h-1.6v-1.3H293.3z M304.4,34.3c0.1,0,0.1,0.1,0.1,0.2
		c0,0.1-0.1,0.2-0.3,0.2c-0.6,1.3-1.2,2.3-1.9,3.1c1,0.7,2.2,1.4,3.8,1.9l-1,1.2c-1.6-0.7-2.8-1.5-3.8-2.2c-1,0.8-2.3,1.5-4,2.2
		l-1.3-1.2c1.9-0.6,3.3-1.2,4.2-2c-0.8-0.9-1.5-2.1-2.1-3.5l1.3-0.3c0.4,1.2,1,2.1,1.7,2.9c0.6-0.8,1.2-1.8,1.7-3L304.4,34.3z
		 M300.1,31c0.2,0,0.3,0.1,0.3,0.2c0,0,0,0.1-0.1,0.2c-0.1,0-0.3,0.3-0.6,0.8c-0.5,0.9-1.1,1.6-1.9,2.4l-1.4-0.7
		c1-0.9,1.8-2,2.5-3.3L300.1,31z M302,26.9c0.3,0,0.4,0.1,0.4,0.2c0,0.1-0.1,0.2-0.3,0.4V29h3.6v1.2h-8.5V29h3.5v-2.2L302,26.9z
		 M306.1,33.7l-1.3,0.8c-0.8-1.2-1.6-2.2-2.5-3l1-0.8C304.2,31.4,305.1,32.4,306.1,33.7"/>
	<path class="st4" d="M321.9,28.7h-12v10.4h12.4v1.3h-12.4v0.6h-1.5V27.4h13.5V28.7z M315.6,38.4h-4.5v-4.3h4.5V38.4z M314.2,35.2
		h-1.9v2h1.9V35.2z M319.6,33.4h-7v-3.9h7V33.4z M318.2,30.6h-4.3v1.6h4.3V30.6z M321.3,38.4h-4.6v-4.3h4.6V38.4z M320,35.2h-1.9v2
		h1.9V35.2z"/>
</g>
</svg>
